<?xml version="1.0" standalone="no"?>
<!DOCTYPE svg PUBLIC "-//W3C//DTD SVG 20010904//EN"
 "http://www.w3.org/TR/2001/REC-SVG-20010904/DTD/svg10.dtd">
<svg version="1.0" xmlns="http://www.w3.org/2000/svg"
 width="735.000000pt" height="520.000000pt" viewBox="0 0 735.000000 520.000000"
 preserveAspectRatio="xMidYMid meet">

<g transform="translate(0.000000,520.000000) scale(0.100000,-0.100000)"
fill="#000000" stroke="none">
<path d="M3320 4915 c-631 -72 -1109 -294 -1314 -612 -26 -41 -59 -112 -77
-165 -29 -88 -30 -100 -27 -218 4 -121 6 -129 52 -244 48 -122 69 -227 47
-240 -6 -4 -11 -20 -11 -36 0 -23 7 -33 30 -45 17 -9 30 -20 30 -25 0 -6 7
-10 15 -10 8 0 15 5 15 10 0 6 19 10 41 10 23 0 58 4 78 10 20 5 58 12 84 15
27 4 47 9 44 11 -3 3 -58 0 -124 -7 -125 -12 -203 -3 -203 25 0 28 373 183
660 275 254 81 300 92 600 155 146 31 432 59 507 51 45 -6 57 -12 87 -46 61
-72 54 -148 -17 -196 -26 -18 -56 -25 -152 -33 -266 -23 -343 -31 -415 -41
-127 -18 -361 -59 -450 -80 -88 -20 -150 -32 -360 -73 -116 -23 -121 -24 -67
-25 36 -1 56 -5 52 -11 -9 -15 23 -24 39 -11 30 25 195 72 376 107 259 50 856
114 1059 114 296 0 754 -85 962 -178 24 -11 53 -22 64 -25 11 -3 28 -8 38 -12
28 -12 20 13 -10 29 -36 20 -33 20 83 -4 95 -20 100 -20 212 -3 l115 17 -48
42 -48 41 6 66 c6 66 23 120 72 236 26 61 27 72 23 185 -3 111 -6 127 -36 190
-46 98 -108 180 -205 273 -99 93 -189 155 -342 234 -110 57 -378 163 -396 157
-6 -2 34 -18 88 -37 54 -18 103 -37 108 -41 6 -4 28 -13 50 -20 91 -29 279
-134 390 -218 61 -46 205 -190 205 -205 0 -5 11 -23 25 -41 36 -47 85 -161 85
-196 0 -27 -2 -29 -19 -21 -84 46 -457 141 -796 204 l-120 22 -8 144 c-6 126
-40 335 -63 395 -6 15 -4 18 9 13 9 -3 19 -2 21 2 6 9 -199 54 -354 77 -149
22 -549 27 -710 9z m-394 -107 c-36 -123 -70 -373 -63 -455 4 -42 2 -64 -6
-71 -7 -6 -55 -17 -107 -26 -108 -19 -129 -23 -294 -60 -223 -49 -286 -66
-439 -120 l-98 -34 6 40 c24 142 180 341 368 469 149 102 385 210 577 265 62
17 63 17 56 -8z m1184 -513 c157 -15 269 -31 277 -39 6 -5 -31 -170 -53 -237
-9 -29 -22 -49 -33 -52 -10 -2 -58 -1 -107 4 -128 13 -547 12 -699 -1 -175
-15 -280 -26 -403 -41 -67 -8 -106 -9 -112 -3 -11 11 -93 325 -86 331 6 6 214
32 336 42 182 14 710 12 880 -4z"/>
<path d="M5629 3316 c-2 -2 -56 -11 -119 -20 -63 -9 -143 -21 -177 -26 -340
-54 -351 -55 -372 -36 -21 19 -73 18 -176 -4 -51 -11 -131 -25 -220 -40 -110
-19 -109 -17 -128 -106 -10 -44 -22 -95 -27 -114 -5 -19 -22 -87 -37 -150 -30
-121 -43 -119 -24 5 6 38 15 102 20 140 6 39 15 107 22 153 10 73 10 85 -5
101 -18 20 -37 17 -276 -38 -47 -11 -122 -27 -167 -37 -47 -9 -89 -24 -98 -34
-13 -15 -16 -72 -21 -401 -8 -629 -27 -936 -76 -1227 -16 -97 1 -106 150 -77
42 8 104 20 137 26 119 21 171 31 215 39 25 5 78 15 119 22 93 16 91 13 131
178 18 75 89 337 103 380 8 25 23 73 33 107 10 35 19 61 21 59 3 -2 -13 -108
-37 -256 -5 -30 -14 -84 -19 -120 -6 -36 -20 -117 -31 -180 -12 -63 -24 -143
-27 -177 -6 -61 -5 -62 22 -69 17 -4 69 3 138 20 62 15 130 31 152 36 22 5 60
13 85 19 127 29 354 66 460 76 36 3 72 10 80 15 15 9 38 239 39 388 1 77 12
90 45 54 30 -34 86 -45 197 -39 57 3 127 11 154 17 104 22 226 33 237 22 23
-23 -37 -65 -161 -113 -54 -20 -150 -15 -191 10 -72 43 -101 25 -148 -94 -11
-27 -39 -90 -62 -140 -96 -208 -95 -205 -84 -223 16 -26 101 -69 171 -86 97
-25 210 -18 293 16 380 158 689 550 668 848 -9 124 -61 192 -174 226 -54 16
-175 19 -237 5 -89 -20 -183 -32 -200 -25 -27 10 -20 47 18 97 39 51 116 102
140 93 9 -3 15 -18 15 -36 0 -61 30 -88 78 -68 82 33 273 105 315 119 69 24
71 29 71 222 0 152 -3 178 -22 226 -42 106 -85 147 -179 171 -87 23 -200 -12
-332 -102 -90 -62 -112 -80 -220 -188 -123 -123 -238 -266 -315 -395 l-36 -60
0 46 c0 29 -6 51 -15 59 -16 13 -20 12 -257 -38 -49 -11 -88 -16 -88 -13 1 3
9 40 18 81 l18 74 94 13 c52 6 131 17 176 22 44 6 94 11 111 11 17 0 36 7 43
15 7 8 16 70 21 147 4 73 11 182 15 242 7 99 6 110 -11 122 -18 13 -47 18 -56
10z m12 -266 c-7 -102 -14 -193 -17 -202 -5 -19 2 -17 -253 -48 -91 -11 -168
-23 -172 -27 -8 -9 -62 -253 -57 -258 2 -1 86 15 187 36 101 22 185 38 187 37
5 -6 -18 -313 -25 -319 -3 -3 -82 -20 -176 -38 -267 -51 -241 -38 -253 -124
-6 -41 -14 -81 -18 -90 -8 -21 19 -22 110 -7 98 17 321 48 324 45 4 -4 -28
-428 -33 -433 -2 -2 -50 -10 -107 -17 -220 -28 -351 -53 -657 -126 -46 -11
-86 -18 -89 -15 -2 3 39 270 93 593 53 324 105 640 116 703 31 188 31 189 -69
-120 -28 -85 -80 -254 -116 -375 -58 -196 -86 -299 -172 -619 -13 -49 -26 -91
-28 -94 -5 -5 -38 -12 -211 -43 -260 -47 -406 -71 -409 -68 -2 2 2 45 10 94
38 253 52 501 63 1094 6 284 12 446 19 450 16 10 452 104 457 99 5 -5 1 -41
-50 -413 -14 -99 -43 -313 -65 -475 -84 -622 -85 -634 -36 -425 42 176 142
597 196 820 23 94 55 229 72 300 17 72 33 133 37 137 6 7 376 78 406 78 12 0
15 -5 10 -21 -7 -21 -5 -22 31 -15 45 7 488 72 614 90 75 10 85 10 89 -4 2 -8
-2 -98 -8 -200z m879 146 c43 -28 75 -87 90 -165 11 -59 13 -225 4 -283 l-6
-37 -155 -61 c-209 -81 -199 -79 -206 -35 -8 50 -23 65 -64 65 -52 0 -100 -25
-152 -80 -45 -48 -71 -101 -71 -148 0 -52 90 -66 236 -36 112 23 245 16 303
-16 62 -34 83 -76 89 -169 7 -128 -33 -243 -141 -399 -93 -135 -298 -307 -450
-378 -117 -54 -261 -58 -379 -9 -38 15 -68 29 -68 31 0 7 180 407 185 413 3 2
22 -3 42 -13 88 -42 192 -36 308 20 84 39 125 78 125 120 0 28 -6 36 -32 50
-37 19 -102 15 -261 -17 -56 -12 -138 -22 -182 -22 -68 -1 -87 3 -124 23 -67
38 -85 68 -89 154 -9 178 135 441 393 714 151 160 310 272 430 301 60 15 132
5 175 -23z m-2183 -518 c-3 -8 -6 -5 -6 6 -1 11 2 17 5 13 3 -3 4 -12 1 -19z
m1133 -482 c0 -10 -17 -13 -67 -13 -56 0 -62 2 -33 8 19 4 49 5 65 2 23 -4 27
-2 15 6 -13 9 -13 11 3 11 9 0 17 -6 17 -14z m-149 -25 c-10 -6 -4 -11 20 -19
57 -18 106 -25 89 -13 -9 7 -10 11 -3 11 6 0 15 -5 18 -10 12 -19 -25 -22 -88
-6 -36 9 -73 14 -83 10 -16 -5 -16 -4 -4 5 12 9 11 11 -7 11 -13 0 -23 -4 -23
-10 0 -5 -21 -10 -47 -9 -56 1 -50 5 38 24 77 16 110 19 90 6z m149 -11 c0 -5
-7 -7 -15 -4 -8 4 -15 8 -15 10 0 2 7 4 15 4 8 0 15 -4 15 -10z m-67 -7 c-7
-2 -19 -2 -25 0 -7 3 -2 5 12 5 14 0 19 -2 13 -5z m77 -27 c0 -17 -22 -26 -63
-25 -29 1 -29 2 11 11 23 5 40 13 37 19 -4 5 -1 9 4 9 6 0 11 -6 11 -14z
m-320 -6 c-11 -7 -8 -10 15 -10 24 0 27 2 15 11 -12 9 -12 10 3 5 10 -3 23 -6
28 -6 5 0 9 -4 9 -10 0 -5 -17 -10 -37 -11 -21 0 -47 -4 -58 -9 l-20 -9 20 -1
c11 -2 23 -2 28 -1 4 0 7 -3 7 -9 0 -5 -13 -10 -30 -10 -27 0 -30 3 -30 33 0
29 3 32 33 34 23 2 28 0 17 -7z m115 -17 c9 4 13 3 10 -3 -3 -5 15 -7 47 -5
40 3 34 1 -27 -10 -44 -8 -91 -13 -105 -12 -16 3 -11 5 13 6 35 1 38 3 32 24
-5 16 -4 18 3 8 6 -8 17 -11 27 -8z"/>
<path d="M3745 3299 c-89 -13 -177 -27 -360 -59 -99 -17 -205 -35 -235 -40
-79 -13 -112 -24 -121 -41 -4 -7 -31 -97 -59 -199 -61 -225 -162 -552 -167
-546 -2 2 0 23 6 47 5 24 14 69 21 99 18 90 75 335 115 496 21 84 35 159 32
168 -11 28 -35 29 -170 7 -73 -12 -177 -29 -232 -38 -55 -8 -105 -21 -112 -27
-11 -10 -67 -316 -122 -661 -6 -36 -9 -40 -50 -52 -25 -7 -46 -11 -48 -10 -4
4 25 139 73 347 37 159 46 195 84 336 30 112 14 142 -66 124 -22 -5 -95 -18
-164 -30 -69 -12 -144 -25 -167 -30 -23 -6 -53 -10 -67 -10 -14 0 -31 -9 -40
-22 -15 -21 -15 -21 -66 26 -28 26 -76 59 -108 74 -51 24 -69 26 -172 27 -97
0 -125 -4 -180 -24 -204 -74 -386 -263 -529 -548 -178 -354 -211 -758 -85
-1017 52 -107 94 -161 159 -205 76 -52 140 -71 237 -71 153 0 282 56 425 184
l51 46 -5 -42 c-3 -24 -9 -59 -14 -78 -12 -49 -11 -94 3 -108 16 -16 40 -15
128 7 41 11 131 34 200 51 69 18 132 36 141 41 12 6 19 36 28 121 7 62 16 140
21 173 34 220 29 202 62 209 61 12 71 9 63 -21 -4 -16 -27 -146 -51 -291 -47
-278 -47 -302 -1 -302 26 1 79 12 157 33 113 30 106 30 102 -6 -8 -67 7 -67
338 -16 30 5 85 13 121 18 112 15 119 21 147 131 13 52 25 96 26 97 1 2 18 6
36 9 28 6 32 5 27 -9 -4 -10 -12 -66 -18 -127 -17 -168 -25 -165 271 -90 43
11 107 25 180 41 30 6 71 17 90 23 l35 12 2 89 c13 568 35 986 63 1230 24 201
30 246 45 333 9 51 13 97 10 102 -12 20 -41 26 -90 19z m41 -67 c-12 -40 -47
-314 -65 -517 -28 -302 -41 -592 -41 -896 l0 -257 -107 -25 c-300 -71 -385
-89 -390 -83 -6 5 2 88 24 245 l6 43 -34 -6 c-19 -4 -55 -12 -81 -17 l-46 -11
-22 -96 c-13 -53 -25 -100 -29 -104 -8 -9 -480 -83 -487 -76 -2 3 4 29 16 57
19 49 19 52 3 47 -89 -25 -314 -78 -318 -75 -4 5 2 44 64 412 18 104 31 196
29 206 -3 17 -8 17 -98 -3 l-95 -21 -28 -215 c-15 -118 -31 -231 -35 -249 l-7
-35 -193 -50 c-106 -27 -195 -46 -198 -43 -6 5 36 257 187 1137 62 359 63 366
57 360 -3 -3 -58 -63 -123 -135 -65 -71 -121 -131 -126 -133 -4 -2 -21 6 -37
18 -36 27 -99 36 -145 20 -150 -49 -350 -402 -364 -642 -7 -107 10 -160 66
-211 98 -88 208 -67 331 65 l56 59 37 -138 37 -137 -53 -54 c-233 -238 -524
-276 -692 -90 -103 114 -155 277 -155 483 0 217 47 409 150 620 131 267 324
466 513 532 62 22 84 25 172 21 83 -3 108 -8 150 -30 57 -30 120 -92 163 -161
34 -54 30 -57 47 45 l6 36 87 16 c222 39 343 59 346 55 2 -2 -16 -83 -40 -179
-58 -231 -147 -630 -142 -636 7 -6 179 33 188 43 5 4 34 161 65 348 35 211 61
344 70 350 14 12 413 80 421 72 2 -2 -18 -96 -46 -208 -82 -331 -164 -729
-211 -1024 -33 -208 -30 -203 109 210 114 340 137 413 227 731 35 125 66 228
67 230 2 1 33 8 68 14 36 6 193 32 350 59 157 26 289 46 293 44 4 -3 6 -12 3
-21z m-1962 -439 c-2 -10 -13 -76 -24 -148 -24 -147 -76 -445 -90 -520 -5 -27
-19 -106 -30 -175 -12 -68 -23 -126 -24 -128 -2 -1 -16 45 -31 103 -31 117
-49 142 -91 123 -13 -6 -24 -14 -24 -18 0 -12 -92 -105 -128 -129 -67 -46
-157 -30 -202 36 -19 28 -25 51 -28 118 -4 70 0 97 23 171 47 150 129 297 219
393 70 74 136 90 200 46 20 -14 46 -25 57 -25 17 0 121 99 157 151 16 24 21
24 16 2z"/>
<path d="M3241 2479 c-58 -236 -102 -431 -100 -434 6 -5 97 9 104 17 3 2 20
134 40 294 19 159 42 347 51 417 9 71 14 130 12 132 -1 2 -50 -190 -107 -426z
m-34 -371 c-3 -8 -6 -5 -6 6 -1 11 2 17 5 13 3 -3 4 -12 1 -19z"/>
<path d="M5285 1425 c-44 -7 -113 -18 -154 -24 -41 -6 -77 -14 -80 -16 -16
-17 90 -358 154 -494 60 -126 112 -193 170 -221 64 -31 107 -18 169 51 79 87
166 298 166 398 0 74 -9 121 -24 121 -8 0 -10 -28 -8 -89 4 -101 -10 -155 -80
-295 -55 -111 -115 -176 -163 -176 -18 0 -18 0 0 37 13 27 14 57 5 219 -15
281 -30 425 -47 467 -9 20 -19 36 -22 36 -3 -1 -42 -7 -86 -14z"/>
<path d="M2009 1369 c-24 -9 -27 -15 -33 -92 -12 -140 -25 -339 -27 -400 l-2
-58 -29 28 c-66 63 -118 186 -142 341 -9 55 -16 102 -16 106 0 3 -4 6 -10 6
-15 0 -12 -66 10 -170 38 -184 132 -329 271 -417 44 -27 63 -33 109 -33 117 0
209 76 285 235 58 119 118 360 85 340 -17 -10 -86 14 -114 40 -15 14 -28 25
-29 25 -1 0 -31 -9 -67 -20 -36 -11 -81 -20 -100 -20 -40 1 -99 34 -130 73
-24 30 -24 30 -61 16z"/>
</g>
</svg>
